# xmcd CD database file
#
# Track frame offsets:
#	182
#	14535
#	30495
#	42962
#	59457
#	73782
#	95535
#	105925
#	114750
#	126592
#	139175
#	151502
#	164480
#	179325
#	190980
#
# Disc length: 2763 seconds
#
# Revision: 0
# Processed by: cddbd v1.4PL0 Copyright (c) Steve Scherf et al.
# Submitted via: Feurio! 1.61.4ß - http://www.feurio.com
#
DISCID=c70ac90f
DTITLE=Various Artist - COUNTRY Playback's CD 1
DYEAR=1900
DGENRE=
TTITLE0=KENNY ROGERS and DOTTY WEST - All I Ever Need Is You
TTITLE1=BELLAMY BROTHERS - Crossfire
TTITLE2=GLEN CAMPBELL - Sunflower
TTITLE3=HANK WILLIAMS - Jambalaya (On The Bayou)
TTITLE4=JOHN DENVER - Take Me Home, Country Roads
TTITLE5=JOHN DENVER - Rocky Mountain High
TTITLE6=DAVE DUDLEY - Six Days On The Road
TTITLE7=DAVE DUDLEY - Truck Drivin' Man
TTITLE8=FREDDY FENDER - Before The Next Teardrop Falls
TTITLE9=FREDDY FENDER - Wasted Days And Wasted Nights
TTITLE10=TENNESSE ERNIE FORD - Sixteen Tons
TTITLE11=CRYSTAL GAYLE - Don't Make My Brown Eyes Blue
TTITLE12=WAYLON JENNINGS - Luckenbach, Texas
TTITLE13=WAYLON JENNINGS - Mamas Don't Let Your Babies Grow Up To The Cowboys
TTITLE14=NEIL DIAMOND - I Am ... I Said
EXTD=Titan Schallplatten - 53811 Neunkirchen\r\nBestell Nr. CD 2178-2
EXTT0=
EXTT1=
EXTT2=
EXTT3=
EXTT4=
EXTT5=
EXTT6=
EXTT7=
EXTT8=
EXTT9=
EXTT10=
EXTT11=
EXTT12=
EXTT13=
EXTT14=
PLAYORDER=
